<?xml version="1.0" encoding="utf-8"?>
<!-- Generator: Adobe Illustrator 27.5.0, SVG Export Plug-In . SVG Version: 6.00 Build 0)  -->
<svg version="1.1" xmlns="http://www.w3.org/2000/svg" xmlns:xlink="http://www.w3.org/1999/xlink" x="0px" y="0px"
	 viewBox="0 0 500 500" style="enable-background:new 0 0 500 500;" xml:space="preserve">
<g id="Background_Complete">
	<g>
		<g>
			<rect x="259.382" y="25.867" style="fill:#EBEBEB;" width="48.653" height="12.871"/>
		</g>
		<g>
			<g>
				<path style="fill:#E0E0E0;" d="M287.462,51.88c-0.005-0.005-0.01-0.084-0.015-0.234c-0.004-0.172-0.009-0.389-0.016-0.66
					c-0.009-0.606-0.021-1.45-0.036-2.533c-0.02-2.222-0.048-5.416-0.083-9.444l0.151,0.151c-11.109,0.022-28.776,0.057-48.65,0.097
					c0.11-0.11-0.25,0.247,0.245-0.247v0.003v0.007v0.013v0.026v0.052v0.104v0.207l0,0.414v0.825c0,0.549,0,1.097,0,1.642
					c0,1.091-0.001,2.174-0.001,3.248c-0.001,2.148-0.003,4.261-0.004,6.331l-0.242-0.242c13.854,0.044,25.976,0.083,34.671,0.11
					c4.331,0.029,7.806,0.053,10.234,0.069c1.181,0.014,2.105,0.024,2.767,0.032c0.298,0.007,0.536,0.012,0.724,0.016
					C287.37,51.87,287.456,51.875,287.462,51.88c0.005,0.005-0.071,0.01-0.225,0.016c-0.18,0.004-0.408,0.009-0.694,0.015
					c-0.649,0.008-1.557,0.018-2.715,0.032c-2.414,0.016-5.871,0.04-10.178,0.069c-8.737,0.028-20.919,0.066-34.84,0.11
					l-0.242,0.001l0-0.243c-0.001-2.07-0.003-4.183-0.004-6.331c0-1.074-0.001-2.157-0.001-3.248c0-0.545,0-1.093,0-1.642l0-0.825
					v-0.414v-0.207V39.11v-0.052v-0.026v-0.013v-0.007V39.01c0.496-0.496,0.139-0.138,0.251-0.248
					c19.874,0.04,37.541,0.075,48.65,0.097l0.152,0l-0.001,0.151c-0.036,4.066-0.064,7.29-0.083,9.534
					c-0.016,1.068-0.028,1.902-0.037,2.499c-0.006,0.26-0.012,0.468-0.016,0.634C287.472,51.816,287.467,51.885,287.462,51.88z"/>
			</g>
		</g>
	</g>
	<g>
		<g>
			<rect x="397.093" y="263.876" style="fill:#EBEBEB;" width="48.653" height="12.871"/>
		</g>
	</g>
	<g>
		<g>
			<g>
				<path style="fill:#EBEBEB;" d="M101.789,58.302c-0.005-0.005-0.011-0.084-0.016-0.234c-0.004-0.174-0.01-0.391-0.017-0.661
					c-0.009-0.609-0.022-1.453-0.038-2.534c-0.021-2.225-0.05-5.418-0.088-9.442l0.158,0.158c-11.114,0.023-28.778,0.06-48.65,0.102
					c0.115-0.116-0.262,0.26,0.257-0.26v0.003v0.007v0.013v0.026v0.052v0.104v0.207v0.414l0,0.825c0,0.549,0,1.097,0,1.642
					c0,1.091-0.001,2.174-0.001,3.248c-0.001,2.148-0.003,4.261-0.004,6.331l-0.255-0.255c13.851,0.046,25.97,0.087,34.667,0.116
					c4.329,0.031,7.804,0.055,10.235,0.073c1.179,0.014,2.104,0.025,2.769,0.034c0.297,0.007,0.535,0.012,0.725,0.016
					C101.697,58.291,101.784,58.296,101.789,58.302c0.006,0.006-0.07,0.011-0.225,0.017c-0.181,0.004-0.41,0.01-0.693,0.016
					c-0.652,0.008-1.558,0.019-2.714,0.033c-2.417,0.017-5.872,0.042-10.177,0.073c-8.741,0.029-20.923,0.069-34.845,0.116
					l-0.255,0.001l0-0.256c-0.001-2.07-0.003-4.182-0.004-6.331c0-1.074-0.001-2.157-0.001-3.248c0-0.545,0-1.093,0-1.642v-0.825
					v-0.414v-0.207v-0.104V45.48v-0.026v-0.013v-0.007v-0.003c0.521-0.521,0.146-0.144,0.263-0.261
					c19.872,0.042,37.536,0.079,48.65,0.102l0.16,0l-0.002,0.158c-0.037,4.064-0.067,7.289-0.087,9.536
					c-0.016,1.066-0.029,1.898-0.039,2.498c-0.007,0.258-0.012,0.466-0.016,0.633C101.8,58.238,101.794,58.307,101.789,58.302z"/>
			</g>
		</g>
	</g>
	<g>
		<g>
			<rect x="91.779" y="315.782" style="fill:#EBEBEB;" width="48.653" height="12.871"/>
		</g>
	</g>
	<g>
		<g>
			<g>
				<path style="fill:#E0E0E0;" d="M451.989,157.032c-0.005-0.005-0.01-0.084-0.015-0.234c-0.004-0.172-0.009-0.389-0.016-0.66
					c-0.009-0.606-0.021-1.45-0.037-2.533c-0.02-2.222-0.048-5.416-0.083-9.444l0.151,0.151c-11.109,0.022-28.776,0.057-48.65,0.097
					c0.11-0.11-0.25,0.247,0.245-0.248v0.003v0.007v0.013v0.026v0.052v0.104l0,0.207v0.414v0.825c0,0.549,0,1.097,0,1.642
					c0,1.091-0.001,2.174-0.001,3.248c-0.001,2.148-0.003,4.261-0.004,6.331l-0.242-0.242c13.854,0.044,25.977,0.083,34.671,0.11
					c4.331,0.029,7.806,0.053,10.234,0.069c1.181,0.014,2.105,0.024,2.767,0.032c0.298,0.006,0.536,0.012,0.724,0.016
					C451.897,157.022,451.984,157.027,451.989,157.032c0.005,0.005-0.071,0.01-0.225,0.016c-0.18,0.004-0.408,0.009-0.694,0.016
					c-0.649,0.008-1.556,0.018-2.715,0.032c-2.414,0.016-5.871,0.04-10.178,0.069c-8.737,0.028-20.919,0.066-34.84,0.11
					l-0.242,0.001l0-0.243c-0.001-2.07-0.003-4.183-0.004-6.331c0-1.074-0.001-2.157-0.001-3.248c0-0.545,0-1.093,0-1.642l0-0.825
					v-0.414v-0.207v-0.104v-0.052v-0.026v-0.013v-0.007v-0.003c0.496-0.496,0.139-0.138,0.251-0.248
					c19.874,0.04,37.541,0.075,48.65,0.097l0.152,0l-0.001,0.151c-0.036,4.066-0.064,7.291-0.083,9.534
					c-0.016,1.068-0.028,1.902-0.037,2.499c-0.007,0.26-0.012,0.468-0.016,0.634C451.999,156.968,451.994,157.037,451.989,157.032z"
					/>
			</g>
		</g>
		<g>
			<g>
				<path style="fill:#E0E0E0;" d="M458.586,144.161c-0.006-0.006-0.012-0.089-0.019-0.245c-0.005-0.185-0.012-0.409-0.019-0.682
					c-0.011-0.633-0.026-1.494-0.044-2.581c-0.023-2.257-0.056-5.444-0.096-9.363l0.178,0.178c-7.573,0.018-17.875,0.043-29.23,0.07
					c-0.223,0.221,0.299-0.302,0.246-0.247v0.003v0.007v0.013v0.026v0.053v0.106l0,0.212v0.422l0,0.841c0,0.56,0,1.116-0.001,1.669
					c-0.001,1.106-0.001,2.199-0.002,3.276c-0.003,2.153-0.006,4.241-0.009,6.241l-0.236-0.236
					c8.439,0.045,15.704,0.084,20.911,0.112c2.568,0.027,4.626,0.049,6.091,0.065c0.684,0.012,1.229,0.022,1.643,0.03
					C458.375,144.142,458.576,144.151,458.586,144.161c0.01,0.01-0.172,0.019-0.531,0.029c-0.401,0.007-0.93,0.017-1.594,0.03
					c-1.452,0.016-3.492,0.038-6.038,0.065c-5.247,0.028-12.567,0.067-21.07,0.112l-0.236,0.001l0-0.237
					c-0.003-2-0.006-4.088-0.009-6.241c-0.001-1.077-0.001-2.17-0.002-3.276c0-0.553,0-1.11-0.001-1.669l0-0.841v-0.422V131.5
					v-0.106v-0.053v-0.026v-0.013v-0.007v-0.003c-0.054,0.052,0.47-0.471,0.25-0.249c11.355,0.027,21.657,0.052,29.23,0.07
					l0.18,0.001l-0.002,0.178c-0.04,3.965-0.073,7.189-0.096,9.472c-0.019,1.07-0.034,1.917-0.044,2.541
					C458.61,143.878,458.598,144.173,458.586,144.161z"/>
			</g>
		</g>
	</g>
	<g>
		<g>
			<g>
				<path style="fill:#E0E0E0;" d="M279.581,464.228c-0.005-0.005-0.01-0.084-0.015-0.234c-0.004-0.172-0.009-0.389-0.016-0.66
					c-0.009-0.606-0.021-1.45-0.037-2.533c-0.02-2.222-0.048-5.416-0.083-9.444l0.151,0.151c-11.109,0.022-28.776,0.057-48.65,0.097
					c0.11-0.11-0.25,0.247,0.245-0.248v0.003v0.007v0.013v0.026v0.052v0.104l0,0.207v0.414v0.825c0,0.549,0,1.097,0,1.642
					c0,1.091-0.001,2.174-0.001,3.248c-0.001,2.148-0.003,4.261-0.004,6.331l-0.242-0.242c13.854,0.044,25.977,0.083,34.671,0.11
					c4.331,0.029,7.806,0.053,10.234,0.069c1.181,0.014,2.105,0.024,2.767,0.032c0.298,0.006,0.536,0.012,0.724,0.016
					C279.489,464.218,279.575,464.223,279.581,464.228c0.005,0.005-0.071,0.011-0.225,0.016c-0.18,0.004-0.408,0.009-0.694,0.016
					c-0.649,0.008-1.556,0.018-2.715,0.032c-2.414,0.016-5.871,0.04-10.178,0.069c-8.737,0.028-20.919,0.066-34.84,0.11
					l-0.242,0.001l0-0.243c-0.001-2.07-0.003-4.183-0.004-6.331c0-1.074-0.001-2.157-0.001-3.248c0-0.545,0-1.093,0-1.642l0-0.825
					v-0.414v-0.207v-0.104v-0.052v-0.026v-0.013v-0.007v-0.003c0.496-0.496,0.139-0.137,0.251-0.248
					c19.874,0.04,37.541,0.075,48.65,0.097l0.152,0l-0.001,0.151c-0.036,4.066-0.064,7.29-0.083,9.534
					c-0.016,1.068-0.028,1.901-0.037,2.499c-0.006,0.26-0.012,0.468-0.016,0.634C279.591,464.165,279.586,464.233,279.581,464.228z"
					/>
			</g>
		</g>
		<g>
			<g>
				<path style="fill:#E0E0E0;" d="M286.177,451.358c-0.006-0.006-0.012-0.089-0.019-0.245c-0.005-0.185-0.012-0.409-0.019-0.682
					c-0.011-0.633-0.026-1.494-0.044-2.581c-0.023-2.257-0.056-5.444-0.096-9.363l0.178,0.178c-7.573,0.018-17.875,0.043-29.23,0.07
					c-0.223,0.221,0.299-0.302,0.246-0.247v0.003v0.007v0.013v0.027v0.053v0.106l0,0.212v0.422l0,0.842c0,0.559,0,1.116-0.001,1.669
					c-0.001,1.106-0.001,2.199-0.002,3.276c-0.003,2.153-0.006,4.241-0.009,6.241l-0.236-0.236
					c8.439,0.045,15.704,0.084,20.911,0.112c2.568,0.027,4.626,0.049,6.091,0.065c0.684,0.012,1.229,0.022,1.643,0.03
					C285.967,451.338,286.167,451.348,286.177,451.358c0.01,0.01-0.172,0.019-0.531,0.029c-0.401,0.007-0.93,0.017-1.594,0.03
					c-1.452,0.016-3.492,0.038-6.038,0.065c-5.247,0.028-12.567,0.067-21.07,0.112l-0.236,0.001l0-0.237
					c-0.003-2-0.006-4.088-0.009-6.241c-0.001-1.077-0.002-2.17-0.002-3.276c0-0.553,0-1.11-0.001-1.669l0-0.842v-0.422v-0.212
					v-0.106v-0.053v-0.027v-0.013v-0.007v-0.003c-0.054,0.052,0.47-0.471,0.25-0.249c11.355,0.027,21.657,0.052,29.23,0.07
					l0.18,0.001l-0.002,0.178c-0.04,3.965-0.073,7.189-0.096,9.472c-0.019,1.07-0.034,1.917-0.044,2.541
					C286.202,451.074,286.19,451.37,286.177,451.358z"/>
			</g>
		</g>
	</g>
	<g>
		<rect x="87.873" y="200.059" style="fill:#EBEBEB;" width="48.653" height="12.871"/>
	</g>
	<g>
		<g>
			<path style="fill:#E0E0E0;" d="M115.953,226.072c-0.005-0.005-0.01-0.084-0.015-0.234c-0.004-0.172-0.009-0.389-0.016-0.66
				c-0.009-0.606-0.021-1.45-0.036-2.533c-0.02-2.222-0.048-5.416-0.083-9.444l0.151,0.151c-11.109,0.022-28.776,0.058-48.65,0.097
				c0.11-0.11-0.25,0.247,0.245-0.247v0.003v0.007v0.013v0.026v0.052v0.104v0.207l0,0.414v0.825c0,0.549,0,1.096,0,1.642
				c0,1.091-0.001,2.174-0.001,3.248c-0.001,2.148-0.003,4.261-0.004,6.331l-0.242-0.242c13.854,0.044,25.977,0.083,34.671,0.11
				c4.331,0.029,7.806,0.053,10.234,0.069c1.181,0.014,2.105,0.024,2.767,0.032c0.298,0.007,0.536,0.012,0.724,0.016
				C115.861,226.061,115.948,226.066,115.953,226.072c0.005,0.005-0.071,0.01-0.225,0.016c-0.18,0.004-0.408,0.009-0.694,0.016
				c-0.649,0.008-1.557,0.018-2.715,0.032c-2.414,0.016-5.871,0.04-10.178,0.069c-8.737,0.028-20.919,0.066-34.84,0.11l-0.242,0.001
				l0-0.243c-0.001-2.07-0.003-4.183-0.004-6.331c0-1.074-0.001-2.157-0.001-3.248c0-0.545,0-1.093,0-1.642l0-0.825v-0.414v-0.207
				v-0.104v-0.052v-0.026v-0.013v-0.007v-0.003c0.496-0.496,0.139-0.137,0.251-0.248c19.874,0.04,37.541,0.075,48.65,0.097l0.152,0
				l-0.001,0.151c-0.036,4.066-0.064,7.29-0.083,9.533c-0.016,1.068-0.028,1.902-0.037,2.499c-0.006,0.26-0.012,0.468-0.016,0.634
				C115.963,226.008,115.958,226.077,115.953,226.072z"/>
		</g>
	</g>
</g>
<g id="Background_Simple" style="display:none;">
	<path style="display:inline;fill:#F5F5F5;" d="M399.118,104.905l-1.9-3.131c-16.017-26.395-44.977-42.306-75.509-40.375
		c-3.925,0.248-7.833,0.78-11.689,1.605c-27.76,5.942-51.915,26.935-61.928,53.821c-5.888,15.812-7.533,34.017-18.708,46.568
		c-14.543,16.334-39.232,16.847-60.939,16.17c-21.707-0.677-46.413-0.1-60.885,16.299c-9.063,10.27-11.944,24.875-11.213,38.629
		c1.935,36.414,27.309,68.973,59.578,85.157c32.269,16.184,70.262,17.633,105.579,10.514c49.474-9.973,96.524-37.362,124.804-79.664
		C414.588,208.195,421.746,150.563,399.118,104.905z"/>
</g>
<g id="Floor">
	<g>
		<path style="fill:#263238;" d="M486.82,478.877c0,0.144-105.183,0.26-234.902,0.26c-129.764,0-234.924-0.116-234.924-0.26
			c0-0.144,105.16-0.26,234.924-0.26C381.637,478.616,486.82,478.733,486.82,478.877z"/>
	</g>
</g>
<g id="Horizontal_Bar">
	<g>
		<polygon style="fill:#455A64;" points="28.08,478.915 50.059,414.907 82.89,414.907 60.685,478.915 		"/>
		<path style="opacity:0.3;" d="M45.229,428.972c0.163-0.475,4.83-14.065,4.83-14.065H82.89l-4.952,14.274L45.229,428.972z"/>
		<rect x="29.788" y="377.283" style="fill:#455A64;" width="443.583" height="37.624"/>
		<path style="opacity:0.3;" d="M283.018,397.469c0,0,3.131,0.251,3.438-1.794c0.307-2.045,1.912-9.282,1.912-9.282
			s8.019-4.474,8.919-9.002l-14.92,0.073l-0.716,10.008L283.018,397.469z"/>
		<polygon style="fill:#455A64;" points="476.231,478.915 454.251,414.907 421.42,414.907 443.625,478.915 		"/>
		<g>
			<path style="fill:#263238;" d="M473.371,414.907c0,0.144-99.012,0.26-221.121,0.26c-122.151,0-221.142-0.117-221.142-0.26
				s98.99-0.26,221.142-0.26C374.359,414.647,473.371,414.763,473.371,414.907z"/>
		</g>
		<path style="opacity:0.3;" d="M459.081,428.972c-0.163-0.475-4.83-14.065-4.83-14.065H421.42l4.952,14.274L459.081,428.972z"/>
	</g>
</g>
<g id="Stars">
	<polygon style="fill:#FF725E;" points="149.255,65.385 151.095,69.114 155.21,69.712 152.233,72.614 152.935,76.712 
		149.255,74.777 145.575,76.712 146.278,72.614 143.301,69.712 147.415,69.114 	"/>
	<polygon style="fill:#FF725E;" points="199.967,218.359 200.73,219.906 202.437,220.154 201.202,221.358 201.494,223.059 
		199.967,222.256 198.44,223.059 198.732,221.358 197.497,220.154 199.204,219.906 	"/>
	<polygon style="fill:#FF725E;" points="272.922,91.952 273.685,93.499 275.392,93.747 274.157,94.951 274.449,96.651 
		272.922,95.848 271.395,96.651 271.687,94.951 270.452,93.747 272.159,93.499 	"/>
	<polygon style="fill:#FF725E;" points="370.004,187.723 370.767,189.27 372.474,189.518 371.239,190.722 371.531,192.422 
		370.004,191.62 368.477,192.422 368.769,190.722 367.534,189.518 369.241,189.27 	"/>
	<polygon style="fill:#FF725E;" points="356.956,168.69 358.313,171.438 361.345,171.879 359.151,174.018 359.669,177.039 
		356.956,175.613 354.244,177.039 354.762,174.018 352.567,171.879 355.6,171.438 	"/>
	<polygon style="fill:#FF725E;" points="169.624,87.253 170.387,88.8 172.094,89.048 170.859,90.252 171.151,91.952 169.624,91.149 
		168.097,91.952 168.389,90.252 167.154,89.048 168.861,88.8 	"/>
	<polygon style="fill:#FF725E;" points="346.887,307.712 347.951,309.868 350.33,310.214 348.608,311.892 349.015,314.261 
		346.887,313.142 344.759,314.261 345.165,311.892 343.444,310.214 345.823,309.868 	"/>
</g>
<g id="Character">
	<g>
		<polygon style="fill:#FF9A6C;" points="300.913,374.457 301.312,377.283 289.523,377.463 290.79,371.451 		"/>
		<path style="fill:#FF725E;" d="M305.434,263.979c0,0,5.634,12.539,7.542,35.116c1.908,22.576,1.59,30.208-1.272,42.291
			c-2.862,12.083-9.857,33.388-9.857,33.388l-9.539-2.226l4.77-90.306l-2.226-18.263H305.434z"/>
		<path style="opacity:0.3;" d="M305.434,263.979c0,0,5.634,12.539,7.542,35.116c1.908,22.576,1.59,30.208-1.272,42.291
			c-2.862,12.083-9.857,33.388-9.857,33.388l-9.539-2.226l4.77-90.306l-2.226-18.263H305.434z"/>
		<g>
			<g>
				<g>
					<g>
						<g>
							<g>
								<g>
									<path style="fill:#263238;" d="M243.029,293.736c-0.759,2.408-2.669,4.254-3.942,6.434
										c-2.804,4.801-2.071,11.014,0.614,15.882c2.498,4.529,7.335,7.808,12.993,9.923c3.878,1.45,8.164,2.014,12.21,1.138
										c5.371-1.163,10.061-5.101,12.135-10.19l-24.612-14.282c-0.71-3.347-1.447-6.762-3.197-9.702
										c-0.513-0.863-1.138-1.701-2.012-2.193c-0.875-0.493-2.049-0.564-2.839,0.055
										C243.515,291.477,243.359,292.69,243.029,293.736z"/>
								</g>
							</g>
						</g>
					</g>
				</g>
				<path style="fill:#263238;" d="M214.624,294.289c-2.099-6.67,1.607-13.779,8.277-15.878c6.67-2.099,13.779,1.607,15.878,8.276
					c2.099,6.67-1.607,13.779-8.277,15.878C223.832,304.664,216.723,300.959,214.624,294.289z"/>
				<g>
					<g>
						<g>
							<g>
								<g>
									<path style="fill:#263238;" d="M243.741,321.053c-5.481-3.009-8.252-8.235-10.166-14.188
										c-1.915-5.952-1.724-12.494,0.127-18.466c1.949-6.29,6.995-13.627,12.36-17.447c5.364-3.82,11.733-4.673,17.524-2.691
										c8.509,2.912,15.966,9.275,18.217,17.982c2.251,8.707-0.108,18.282-5.422,25.537c-3.661,4.999-8.756,9.042-14.66,10.92
										C255.817,324.578,249.104,324.156,243.741,321.053"/>
								</g>
							</g>
						</g>
					</g>
					<g>
						<g>
							<g>
								<path style="fill:#FFBF9D;" d="M293.017,274.534l2.076-2.886l4.326-23.41l-25.425,6.152l-32.331,39.999
									c-1.445,1.896-1.199,4.582,0.565,6.184l16.027,19.356c5.81,5.273,15.67,0.582,20.692-5.446
									c5.579-6.698,12.127-15.095,15.128-20.942C300.11,281.782,293.017,274.534,293.017,274.534"/>
							</g>
						</g>
					</g>
					<g>
						<g>
							<g>
								<g>
									<g>
										<g>
											<g>
												<g>
													<g>
														<g>
															<g>
																<g>
																	<g>
																		<g>
																			<g>
																				<g>
																					<g>
																						<g>
																							<g>
																								<g>
																									<g>
																										<g>
																											<path style="fill:#263238;" d="M280.58,303.363c0.547-0.695,0.41-1.732-0.305-2.316
																												c-0.714-0.584-1.737-0.496-2.284,0.199c-0.547,0.695-0.41,1.732,0.304,2.316
																												C279.009,304.146,280.033,304.057,280.58,303.363z"/>
																										</g>
																									</g>
																								</g>
																							</g>
																						</g>
																					</g>
																				</g>
																			</g>
																		</g>
																	</g>
																</g>
															</g>
														</g>
													</g>
												</g>
											</g>
										</g>
									</g>
									<g>
										<g>
											<g>
												<g>
													<g>
														<g>
															<g>
																<g>
																	<g>
																		<g>
																			<g>
																				<g>
																					<g>
																						<g>
																							<g>
																								<g>
																									<g>
																										<g>
																											<g>
																												<path style="fill:#263238;" d="M279.625,309.588c0.012-0.267-1.165-1.121-2.103-2.794
																													c-0.951-1.661-1.133-3.205-1.356-3.311c-0.104-0.056-0.209,0.276-0.138,0.953
																													c0.067,0.669,0.35,1.704,0.938,2.743c0.589,1.039,1.308,1.772,1.823,2.13
																													C279.31,309.678,279.625,309.716,279.625,309.588z"/>
																											</g>
																										</g>
																									</g>
																								</g>
																							</g>
																						</g>
																					</g>
																				</g>
																			</g>
																		</g>
																	</g>
																</g>
															</g>
														</g>
													</g>
												</g>
											</g>
										</g>
									</g>
								</g>
								<g>
									<g>
										<g>
											<g>
												<g>
													<g>
														<g>
															<g>
																<g>
																	<g>
																		<g>
																			<g>
																				<g>
																					<g>
																						<g>
																							<g>
																								<g>
																									<g>
																										<g>
																											<path style="fill:#263238;" d="M267.064,293.19c0.548-0.695,0.41-1.731-0.305-2.316
																												c-0.714-0.584-1.736-0.496-2.284,0.199c-0.547,0.695-0.41,1.732,0.303,2.316
																												C265.493,293.974,266.517,293.885,267.064,293.19z"/>
																										</g>
																									</g>
																								</g>
																							</g>
																						</g>
																					</g>
																				</g>
																			</g>
																		</g>
																	</g>
																</g>
															</g>
														</g>
													</g>
												</g>
											</g>
										</g>
									</g>
									<g>
										<g>
											<g>
												<g>
													<g>
														<g>
															<g>
																<g>
																	<g>
																		<g>
																			<g>
																				<g>
																					<g>
																						<g>
																							<g>
																								<g>
																									<g>
																										<g>
																											<g>
																												<path style="fill:#263238;" d="M267.846,296.503c-0.181-0.293-2.04-0.228-4.232-1.226
																													c-2.199-0.976-3.501-2.463-3.813-2.391c-0.149,0.027-0.025,0.464,0.54,1.125
																													c0.552,0.654,1.594,1.519,2.962,2.135c1.369,0.614,2.656,0.798,3.458,0.753
																													C267.576,296.857,267.937,296.639,267.846,296.503z"/>
																											</g>
																										</g>
																									</g>
																								</g>
																							</g>
																						</g>
																					</g>
																				</g>
																			</g>
																		</g>
																	</g>
																</g>
															</g>
														</g>
													</g>
												</g>
											</g>
										</g>
									</g>
								</g>
								<g>
									<g>
										<g>
											<g>
												<g>
													<g>
														<g>
															<g>
																<g>
																	<g>
																		<g>
																			<g>
																				<g>
																					<g>
																						<g>
																							<g>
																								<g>
																									<g>
																										<g>
																											<path style="fill:#263238;" d="M279.166,291.332c-0.067,0.077,0.722,0.895,2.05,2.153
																												c0.343,0.31,0.641,0.641,0.518,0.94c-0.109,0.333-0.557,0.619-1.053,0.919
																												c-1.006,0.643-2.061,1.318-3.166,2.023c-4.469,2.91-7.994,5.411-7.875,5.59
																												c0.119,0.179,3.838-2.034,8.307-4.943c1.093-0.724,2.136-1.413,3.132-2.074
																												c0.449-0.319,1.041-0.621,1.259-1.316c0.103-0.351-0.023-0.751-0.214-0.989
																												c-0.185-0.247-0.391-0.404-0.566-0.549C280.141,291.929,279.232,291.254,279.166,291.332z"/>
																										</g>
																									</g>
																								</g>
																							</g>
																						</g>
																					</g>
																				</g>
																			</g>
																		</g>
																	</g>
																</g>
															</g>
														</g>
													</g>
												</g>
											</g>
										</g>
									</g>
								</g>
								<g>
									<g>
										<g>
											<g>
												<g>
													<g>
														<g>
															<g>
																<g>
																	<g>
																		<g>
																			<g>
																				<g>
																					<g>
																						<g>
																							<g>
																								<g>
																									<g>
																										<path style="fill:#FF9A6C;" d="M293.017,274.534c0,0-7.013-5.313-17.122-6.23
																											c0,0,8.883-4.697,18.705,4.003L293.017,274.534z"/>
																									</g>
																								</g>
																							</g>
																						</g>
																					</g>
																				</g>
																			</g>
																		</g>
																	</g>
																</g>
															</g>
														</g>
													</g>
												</g>
											</g>
										</g>
									</g>
								</g>
							</g>
						</g>
						<g>
							<g>
								<g>
									<g>
										<g>
											<g>
												<g>
													<g>
														<g>
															<g>
																<g>
																	<g>
																		<g>
																			<g>
																				<g>
																					<g>
																						<g>
																							<path style="fill:#263238;" d="M262.314,301.957c0.146-0.5-1.443-1.375-2.998-2.828
																								c-1.585-1.422-2.595-2.928-3.081-2.739c-0.225,0.096-0.257,0.643,0.019,1.433
																								c0.272,0.786,0.885,1.792,1.826,2.655c0.942,0.861,1.999,1.384,2.805,1.586
																								C261.696,302.269,262.239,302.19,262.314,301.957z"/>
																						</g>
																					</g>
																				</g>
																			</g>
																		</g>
																	</g>
																</g>
															</g>
														</g>
													</g>
												</g>
											</g>
										</g>
									</g>
								</g>
							</g>
						</g>
						<g>
							<g>
								<g>
									<g>
										<g>
											<g>
												<g>
													<g>
														<g>
															<g>
																<g>
																	<g>
																		<g>
																			<g>
																				<g>
																					<g>
																						<g>
																							<path style="fill:#263238;" d="M275.547,314.453c-0.014-0.517-1.267-0.907-2.483-1.772
																								c-1.246-0.822-2.062-1.849-2.549-1.675c-0.226,0.092-0.307,0.54-0.09,1.179
																								c0.211,0.633,0.76,1.425,1.606,2.005c0.847,0.579,1.783,0.804,2.449,0.773
																								C275.153,314.935,275.541,314.697,275.547,314.453z"/>
																						</g>
																					</g>
																				</g>
																			</g>
																		</g>
																	</g>
																</g>
															</g>
														</g>
													</g>
												</g>
											</g>
										</g>
									</g>
								</g>
							</g>
						</g>
						<g>
							<g>
								<g>
									<g>
										<g>
											<g>
												<g>
													<g>
														<path style="fill:#FFBF9D;" d="M257.301,279.253c-0.576,0.783-2.836,1.969-3.699,1.523
															c-2.305-1.191-5.912-4.086-2.103-9.365c5.207-7.217,11.379-0.5,11.242-0.284
															C262.634,271.296,259.289,276.549,257.301,279.253z"/>
													</g>
												</g>
											</g>
										</g>
									</g>
								</g>
							</g>
						</g>
						<g>
							<g>
								<g>
									<g>
										<g>
											<g>
												<g>
													<g>
														<g>
															<path style="fill:#FF9A6C;" d="M258.564,272.27c-0.048,0-0.063-0.179-0.204-0.429
																c-0.139-0.244-0.448-0.567-0.926-0.698c-0.964-0.271-2.48,0.477-3.453,1.753c-0.492,0.644-0.806,1.368-0.947,2.054
																c-0.161,0.687-0.085,1.302,0.25,1.647c0.318,0.364,0.755,0.33,0.99,0.191c0.243-0.132,0.301-0.31,0.348-0.294
																c0.033-0.004,0.068,0.232-0.205,0.488c-0.133,0.122-0.341,0.231-0.61,0.248c-0.275,0.016-0.581-0.096-0.828-0.318
																c-0.528-0.44-0.66-1.314-0.506-2.067c0.126-0.778,0.463-1.604,1.016-2.326c1.096-1.421,2.822-2.245,4.083-1.793
																c0.603,0.234,0.916,0.693,1.012,1.021C258.676,272.086,258.598,272.275,258.564,272.27z"/>
														</g>
													</g>
												</g>
											</g>
										</g>
									</g>
								</g>
							</g>
						</g>
					</g>
					<g>
						<g>
							<g>
								<g>
									<g>
										<path style="fill:#FF725E;" d="M235.931,283.93c-0.05-0.04-0.758,0.717-1.615,2.15c-0.858,1.426-1.801,3.568-2.301,6.076
											c-0.493,2.51-0.437,4.85-0.187,6.496c0.247,1.651,0.613,2.621,0.674,2.603c0.2-0.019-0.92-4.064,0.09-8.984
											C233.532,287.339,236.108,284.024,235.931,283.93z"/>
									</g>
								</g>
							</g>
						</g>
					</g>
					<g>
						<g>
							<g>
								<g>
									<path style="fill:#263238;" d="M254.384,322.725c2.89-2.328,10.085-2.547,13.728-3.254
										c6.951-1.351,8.125-1.431,18.145-14.161c-0.875,4.605-4.036,11.356-7.077,14.922c-3.041,3.566-7.309,6.171-11.954,6.789
										C262.58,327.64,257.601,326.133,254.384,322.725"/>
								</g>
							</g>
						</g>
					</g>
				</g>
			</g>
			<g>
				<path style="fill:#FF9A6C;" d="M282.36,284.666c-0.047,1.219-0.151,3.016-1.294,2.819c-0.58-0.146-3.429-0.825-3.989-1.033
					c-0.56-0.209-1.091-0.642-1.184-1.233c-0.03-0.193-0.012-0.39,0.027-0.581c0.129-0.639,0.49-1.228,1-1.633
					c0.914-0.726,2.18-0.809,3.342-0.697c0.622,0.06,1.294,0.196,1.697,0.673C282.341,283.432,282.383,284.075,282.36,284.666z"/>
			</g>
			<g>
				<g>
					<path style="fill:#263238;" d="M282.563,283.06c0.049-0.025-0.546-0.764-1.95-1.087c-0.687-0.151-1.577-0.164-2.473,0.172
						c-0.886,0.328-1.785,0.98-2.329,1.967c-0.264,0.501-0.413,1.082-0.256,1.662c0.148,0.609,0.748,0.957,1.195,1.056
						c0.907,0.213,1.681,0.352,2.356,0.484c1.337,0.252,2.172,0.37,2.189,0.297c0.017-0.074-0.788-0.326-2.103-0.674
						c-0.723-0.186-1.489-0.382-2.298-0.59c-0.404-0.119-0.73-0.335-0.822-0.717c-0.102-0.375,0.003-0.851,0.222-1.257
						c0.462-0.843,1.249-1.441,2.028-1.756c0.787-0.323,1.58-0.354,2.222-0.262C281.848,282.552,282.512,283.143,282.563,283.06z"/>
				</g>
			</g>
		</g>
		<path style="fill:#FFBF9D;" d="M243.071,130.689c0,0,45.188-22.728,79.949-24.6c0,0,8.174-6.02,22.728-13.904
			c11.616-6.293,50.803-11.498,50.803-11.498l9.11,10.76c0,0-49.485,21.327-54.298,26.942c-4.813,5.615-58.023,37.167-58.023,37.167
			L243.071,130.689z"/>
		<path style="fill:#FF725E;" d="M270.158,134.373c0,0,35.173,29.144,42.514,52.14c6.351,19.896,12.835,30.215,10.161,42.782
			c-2.674,12.567-21.805,41.386-21.805,41.386l-30.316-11.968l-2.922-45.595l-7.45-24.251c0,0-8.527-6.229-14.677-7.031
			c-6.15-0.802-24.525-8.83-25.685-19.056c-1.16-10.226,26.271-37.651,26.271-37.651S253.58,122.073,270.158,134.373z"/>
		<path style="fill:#FF725E;" d="M274.967,260.469c0.954,0.954,14.478,42.76,12.57,54.843c-1.908,12.083,0.195,1.59,0.195,1.59
			s-3.692,11.765-4.01,19.715c-0.318,7.949-4.134,30.844-4.134,30.844l12.719,5.088c0,0,14.309-41.337,14.309-54.056
			c0-12.719-3.373-59.457-3.373-59.457s-2.717-15.994-15.754-14.404C274.452,246.22,274.967,260.469,274.967,260.469z"/>
		<path style="fill:#FFBF9D;" d="M79.89,118.85c-1.041,0.591-30.036-1.738-32.602-1.285c-2.566,0.453-20.678,1.66-20.829,4.528
			c-0.151,2.868,3.622,5.735,10.716,5.434c7.094-0.302,18.414,8.151,21.886,11.773c3.472,3.623,9.9,4.224,12.829,0
			c3.425-4.939,8-4.528,8-4.528V118.85z"/>
		<path style="fill:#FFBF9D;" d="M396.55,80.688c0,0,1.237-5.144,2.683-7.494c1.446-2.35,7.41-3.253,16.809,1.446
			c0,0,7.049,2.136,10.302,1.339c3.253-0.797,13.355-3.925,14.846-3.611c2.049,0.431,3.568,0.539,1.941,4.098
			c-1.627,3.559-5.284,5.146-12.63,8.477c-6.894,3.126-27.409,7.01-27.409,7.01L396.55,80.688z"/>
		<path style="fill:#FFBF9D;" d="M79.89,134.772c0,0,38.535,12.891,54.311,11.822c15.776-1.07,18.717-7.948,28.61-4.91
			c9.893,3.038,43.851,11.594,54.012,13.466c0,0,1.872,14.706,17.113,17.38c19.673,1.781,35.23-3.335,35.23-21.078l-1.096-4.697
			c-3.533-8.73-8.337-14.795-16.718-19.089c-2.079-1.065-4.405-2.165-6.988-3.265c-14.439-6.15-73.341-9.459-84.1-8.952
			c-9.85,0.464-85.242,3.604-85.242,3.604L79.89,134.772z"/>
		<g>
			<path style="fill:#263238;" d="M275.994,235.345c0.087,0.047-0.647,1.325-1.464,3.537c-0.416,1.102-0.807,2.452-1.139,3.97
				c-0.305,1.524-0.535,3.221-0.6,5.014c-0.045,1.794,0.081,3.503,0.292,5.043c0.238,1.536,0.546,2.907,0.894,4.033
				c0.68,2.257,1.334,3.578,1.245,3.62c-0.032,0.016-0.214-0.303-0.518-0.897c-0.314-0.589-0.689-1.482-1.078-2.61
				c-0.398-1.127-0.749-2.512-1.018-4.071c-0.241-1.563-0.385-3.304-0.338-5.132c0.066-1.827,0.315-3.555,0.652-5.101
				c0.363-1.54,0.798-2.9,1.265-4.001c0.457-1.103,0.887-1.971,1.236-2.54C275.761,235.634,275.963,235.327,275.994,235.345z"/>
		</g>
		<g>
			<path style="fill:#263238;" d="M303.516,246.303c0.08,0.008-0.009,1.351-0.068,3.521c-0.063,2.17-0.056,5.168,0.082,8.479
				c0.14,3.312,0.341,6.31,0.454,8.483c0.117,2.173,0.152,3.52,0.08,3.525c-0.072,0.005-0.236-1.331-0.447-3.498
				c-0.208-2.166-0.467-5.164-0.608-8.489c-0.139-3.324-0.088-6.342,0.07-8.518c0.077-1.088,0.164-1.967,0.253-2.571
				C303.417,246.632,303.48,246.3,303.516,246.303z"/>
		</g>
		<path style="fill:#FFBF9D;" d="M291.963,372.41l-11.961-4.784l-0.115,1.37l-12.099,1.676c0,0-6.703,3.733-8.585,4.101
			c-1.882,0.368-1.176,1.426-1.058,2.132c0.118,0.706,5.057-0.588,5.057-0.588l-5.283,3.763l-5.889,10.114
			c0,0,0.47,2.234,3.41,0.588c2.94-1.646,5.645-6.233,5.645-6.233l4.528-2.47l-6.057,16.229c0,0,3.763,2.117,5.292-0.706
			c1.529-2.823,6.233-12.231,6.233-12.231l0.353,15.994c0,0,3.305,0.706,4.24,0c0.935-0.706,0.935-15.171,0.935-15.171
			s0.47,10.937,1.529,11.408c1.059,0.47,2.94-0.47,3.293-1.176c0.353-0.706,0.588-11.251,0.588-11.251l2.587-2.156
			c0,0,4.019-2.503,5.783-4.738C292.153,376.048,291.963,372.41,291.963,372.41z"/>
		<path style="fill:#263238;" d="M255.519,292.883c3.213-8.249,0.77-15.651,0.77-15.651l-4.587,2.823l-13.959,10.433v12.989
			l21.448,18.741C259.19,322.218,248.467,310.986,255.519,292.883z"/>
		<path style="fill:#FFBF9D;" d="M268.859,235.817c0,0,8.007-12.909,7.146-22.34c-0.86-9.431-16.055-24.688-16.055-24.688
			l7.45,24.251L268.859,235.817z"/>
		<g>
			<path style="fill:#263238;" d="M265.526,174.72c-0.027-0.024,0.287-0.505,0.87-1.345c0.534-0.873,1.19-2.208,1.768-3.946
				c0.503-1.758,1.021-3.89,1.192-6.314c0.155-1.204,0.127-2.482,0.177-3.8c-0.057-1.319-0.057-2.689-0.23-4.08
				c-0.484-5.596-2.13-10.481-3.737-13.767c-1.635-3.294-3.202-4.995-3.096-5.076c0.027-0.023,0.4,0.408,1.055,1.214
				c0.168,0.209,0.349,0.433,0.543,0.673c0.184,0.256,0.358,0.552,0.559,0.861c0.38,0.631,0.884,1.313,1.268,2.16
				c1.712,3.284,3.437,8.223,3.927,13.884c0.175,1.408,0.172,2.794,0.222,4.129c-0.057,1.335-0.039,2.628-0.21,3.847
				c-0.2,2.453-0.763,4.613-1.32,6.384c-0.366,0.857-0.606,1.671-0.984,2.311c-0.376,0.638-0.633,1.226-0.965,1.632
				C265.919,174.307,265.553,174.744,265.526,174.72z"/>
		</g>
		<path style="opacity:0.3;fill:#FFFFFF;" d="M319.745,207.544l-0.129,5.899l-11.966-11.42l-14.502,7.956l3.907-16.073
			l-14.141-8.581l15.873-4.653l0.361-16.537l3.343,4.066c0,0,6.297,8.12,9.893,18.432
			C315.418,195.331,319.745,207.544,319.745,207.544z"/>
	</g>
</g>
</svg>
